<svg width="67" height="67" viewBox="0 0 67 67" fill="none" xmlns="http://www.w3.org/2000/svg">
<path d="M22.023 33.5C22.023 27.3331 26.9511 22.3324 33.0319 22.3324C39.1127 22.3324 44.0434 27.3331 44.0434 33.5C44.0434 39.6669 39.1127 44.6676 33.0319 44.6676C26.9511 44.6676 22.023 39.6669 22.023 33.5ZM16.0704 33.5C16.0704 43.0006 23.6641 50.7019 33.0319 50.7019C42.3998 50.7019 49.9934 43.0006 49.9934 33.5C49.9934 23.9994 42.3998 16.2982 33.0319 16.2982C23.6641 16.2982 16.0704 23.9994 16.0704 33.5ZM46.7011 15.6161C46.7002 17.8363 48.4741 19.6368 50.6633 19.6377C52.8525 19.6386 54.6279 17.8395 54.6287 15.6193C54.6296 13.3991 52.8556 11.5986 50.6665 11.5977C48.4784 11.5987 46.703 13.397 46.7011 15.6161ZM19.687 60.7682C16.4665 60.6195 14.7161 60.0754 13.5529 59.6158C12.0107 59.0069 10.9103 58.2817 9.7534 57.11C8.59649 55.9383 7.88036 54.8234 7.28261 53.2594C6.82915 52.0802 6.29271 50.3044 6.14632 47.0383C5.98618 43.5071 5.9542 42.4464 5.9542 33.5003C5.9542 24.5542 5.98882 23.4964 6.14632 19.9622C6.29298 16.6961 6.83338 14.9238 7.28261 13.7412C7.883 12.1771 8.59808 11.0612 9.7534 9.88786C10.9087 8.71456 12.008 7.98828 13.5529 7.38206C14.7156 6.92217 16.4665 6.37813 19.687 6.22966C23.1689 6.06725 24.2148 6.03482 33.0319 6.03482C41.8491 6.03482 42.896 6.06993 46.3808 6.22966C49.6013 6.3784 51.3488 6.92646 52.5149 7.38206C54.0571 7.98828 55.1575 8.71616 56.3144 9.88786C57.4713 11.0596 58.1848 12.1771 58.7852 13.7412C59.2387 14.9204 59.7751 16.6961 59.9215 19.9622C60.0816 23.4964 60.1136 24.5542 60.1136 33.5003C60.1136 42.4464 60.0816 43.5042 59.9215 47.0383C59.7748 50.3044 59.2358 52.0796 58.7852 53.2594C58.1848 54.8234 57.4697 55.9394 56.3144 57.11C55.1591 58.2806 54.0571 59.0069 52.5149 59.6158C51.3522 60.0757 49.6013 60.6197 46.3808 60.7682C42.899 60.9306 41.853 60.963 33.0319 60.963C24.2108 60.963 23.1678 60.9306 19.687 60.7682ZM19.4135 0.202876C15.8971 0.365284 13.4942 0.930764 11.3958 1.75888C9.22251 2.61407 7.38277 3.76138 5.54434 5.62291C3.70592 7.48444 2.57755 9.3532 1.73431 11.5572C0.917759 13.6868 0.36018 16.1223 0.200041 19.6886C0.03726 23.2605 0 24.4025 0 33.5C0 42.5975 0.03726 43.7395 0.200041 47.3114C0.36018 50.8779 0.917759 53.3132 1.73431 55.4428C2.57755 57.6455 3.70618 59.5164 5.54434 61.3771C7.3825 63.2378 9.22251 64.3835 11.3958 65.2411C13.4982 66.0692 15.8971 66.6347 19.4135 66.7971C22.9374 66.9595 24.0615 67 33.0319 67C42.0023 67 43.1283 66.9622 46.6503 66.7971C50.167 66.6347 52.5683 66.0692 54.6681 65.2411C56.84 64.3835 58.6811 63.2386 60.5195 61.3771C62.3579 59.5156 63.4839 57.6455 64.3295 55.4428C65.1461 53.3132 65.7063 50.8777 65.8638 47.3114C66.0239 43.7368 66.0612 42.5975 66.0612 33.5C66.0612 24.4025 66.0239 23.2605 65.8638 19.6886C65.7037 16.1221 65.1461 13.6854 64.3295 11.5572C63.4839 9.35454 62.355 7.48738 60.5195 5.62291C58.684 3.75843 56.84 2.61407 54.6707 1.75888C52.5683 0.930764 50.1668 0.362604 46.653 0.202876C43.131 0.040468 42.005 0 33.0346 0C24.0642 0 22.9374 0.037788 19.4135 0.202876Z" fill="#CFB4E3"/>
</svg>
