<svg width="110" height="92" viewBox="0 0 110 92" fill="none" xmlns="http://www.w3.org/2000/svg">
<path d="M108.32 80.4474C102.931 87.7233 98.1156 86.3359 98.1156 80.4474V14.0875C64.6758 67.1043 54.9748 84.4314 58.7862 90.4957" stroke="#D9ACF5" stroke-opacity="0.76" stroke-width="2.72615" stroke-linecap="round" stroke-linejoin="round"/>
<path d="M108.32 4.73352C104.299 7.10088 100.822 10.2891 98.1156 14.0902" stroke="#D9ACF5" stroke-opacity="0.76" stroke-width="2.72615" stroke-linecap="round" stroke-linejoin="round"/>
<path d="M96.4014 16.8079C58.6687 -3.23664 53.3555 50.1275 68.8757 61.8821H98.1156" stroke="#D9ACF5" stroke-opacity="0.76" stroke-width="2.72615" stroke-linecap="round" stroke-linejoin="round"/>
<path d="M88.9969 28.6094C83.966 27.2562 76.3429 25.4078 71.9543 34.0699" stroke="#D9ACF5" stroke-opacity="0.76" stroke-width="2.72615" stroke-linecap="round" stroke-linejoin="round"/>
<path d="M61.3292 76.3051C74.7268 80.6197 78.4238 83.2775 82.35 86.2798C87.895 82.6979 95.9807 77.4999 98.1156 77.4999" stroke="#D9ACF5" stroke-opacity="0.76" stroke-width="2.72615" stroke-linecap="round" stroke-linejoin="round"/>
<path d="M14.7349 15.9304C14.7349 15.9304 -8.95182 52.5308 21.2207 53.4359C26.9131 53.6055 47.9533 58.672 28.6249 77.046C26.3199 79.2253 24.6175 80.9444 22.6999 82.7224C-2.8188 106.374 -2.36789 66.8639 11.2269 67.9521C20.0201 67.9521 36.9478 84.2207 36.9478 84.2207C58.7126 62.4562 58.4937 36.0769 29.4725 36.0769C0.451222 36.0769 20.4576 2 20.4576 2L38.4846 14.7497" stroke="#D9ACF5" stroke-opacity="0.76" stroke-width="2.72615" stroke-linecap="round" stroke-linejoin="round"/>
<path d="M42.1567 7.7113L19.0168 70.5278" stroke="#D9ACF5" stroke-opacity="0.76" stroke-width="2.72615" stroke-linecap="round" stroke-linejoin="round"/>
</svg>
