<svg width="2297" height="1315" viewBox="0 0 2297 1315" fill="none" xmlns="http://www.w3.org/2000/svg">
<path d="M2295.58 679.413C2295.58 749.476 2263.57 816.282 2205.56 877.11C2147.55 937.943 2063.57 992.762 1959.74 1038.82C1752.09 1130.92 1465.15 1187.91 1148.18 1187.91C831.199 1187.91 544.266 1130.92 336.608 1038.82C232.778 992.762 148.8 937.943 90.7912 877.11C32.786 816.282 0.776366 749.476 0.776366 679.413C0.776366 609.349 32.786 542.544 90.7912 481.715C148.8 420.882 232.778 366.064 336.608 320.009C544.266 227.902 831.199 170.912 1148.18 170.912C1465.15 170.912 1752.09 227.902 1959.74 320.009C2063.57 366.064 2147.55 420.882 2205.56 481.715C2263.57 542.544 2295.58 609.349 2295.58 679.413Z" stroke="url(#paint0_linear_13_339)" stroke-width="1.55273"/>
<path d="M1914.67 843.503C1914.67 928.083 1839.16 1004.99 1716.27 1060.82C1593.48 1116.6 1423.77 1151.14 1236.26 1151.14C1048.75 1151.14 879.039 1116.6 756.246 1060.82C633.36 1004.99 557.848 928.083 557.848 843.503C557.848 758.923 633.36 682.011 756.246 626.185C879.039 570.401 1048.75 535.871 1236.26 535.871C1423.77 535.871 1593.48 570.401 1716.27 626.185C1839.16 682.011 1914.67 758.923 1914.67 843.503Z" fill="url(#paint1_radial_13_339)" stroke="url(#paint2_linear_13_339)" stroke-width="2.07031"/>
<ellipse cx="1264.29" cy="959.745" rx="349.402" ry="154.978" fill="url(#paint3_radial_13_339)" fill-opacity="0.6"/>
<g filter="url(#filter0_d_13_339)">
<path fill-rule="evenodd" clip-rule="evenodd" d="M1264.29 1114.72C1508.97 1114.72 1707.33 1030.5 1707.33 926.599C1707.33 822.701 1508.97 738.475 1264.29 738.475C1019.6 738.475 821.248 822.701 821.248 926.599C821.248 1030.5 1019.6 1114.72 1264.29 1114.72ZM1264.29 1114.72C1457.26 1114.72 1613.69 1045.34 1613.69 959.744C1613.69 874.152 1457.26 804.766 1264.29 804.766C1071.32 804.766 914.886 874.152 914.886 959.744C914.886 1045.34 1071.32 1114.72 1264.29 1114.72Z" fill="url(#paint4_radial_13_339)" fill-opacity="0.6" shape-rendering="crispEdges"/>
</g>
<g filter="url(#filter1_d_13_339)">
<path fill-rule="evenodd" clip-rule="evenodd" d="M1264.29 1131.5C1613.79 1131.5 1897.12 1005.82 1897.12 850.799C1897.12 695.776 1613.79 570.104 1264.29 570.104C914.784 570.104 631.454 695.776 631.454 850.799C631.454 1005.82 914.784 1131.5 1264.29 1131.5ZM1264.29 1114.72C1508.97 1114.72 1707.32 1030.5 1707.32 926.597C1707.32 822.699 1508.97 738.473 1264.29 738.473C1019.6 738.473 821.248 822.699 821.248 926.597C821.248 1030.5 1019.6 1114.72 1264.29 1114.72Z" fill="url(#paint5_radial_13_339)" shape-rendering="crispEdges"/>
</g>
<path fill-rule="evenodd" clip-rule="evenodd" d="M1266.21 1107.15C1423.52 1106.69 1550.73 1049.98 1550.73 980.099C1550.73 909.931 1422.48 853.048 1264.29 853.048C1106.09 853.048 977.849 909.931 977.849 980.099C977.849 1049.99 1105.07 1106.7 1262.39 1107.15C1138.25 1106.7 1037.93 1061.92 1037.93 1006.75C1037.93 951.3 1139.28 906.349 1264.29 906.349C1389.3 906.349 1490.65 951.3 1490.65 1006.75C1490.65 1061.92 1390.34 1106.69 1266.21 1107.15Z" fill="url(#paint6_radial_13_339)"/>
<path d="M1742.74 910.382C1742.74 939.512 1729.43 967.311 1705.27 992.651C1681.1 1017.99 1646.1 1040.85 1602.8 1060.05C1516.2 1098.46 1396.52 1122.24 1264.29 1122.24C1132.06 1122.24 1012.38 1098.46 925.783 1060.05C882.483 1040.85 847.482 1017.99 823.315 992.651C799.151 967.311 785.844 939.512 785.844 910.382C785.844 881.252 799.151 853.453 823.315 828.113C847.482 802.769 882.483 779.917 925.783 760.711C1012.38 722.3 1132.06 698.526 1264.29 698.526C1396.52 698.526 1516.2 722.3 1602.8 760.711C1646.1 779.917 1681.1 802.769 1705.27 828.113C1729.43 853.453 1742.74 881.252 1742.74 910.382Z" stroke="url(#paint7_linear_13_339)" stroke-width="1.29394"/>
<rect width="4.28886" height="4.28886" transform="matrix(0.784389 0.62027 -0.784389 0.62027 714.33 905.056)" fill="#00FFF0"/>
<rect width="8.67326" height="8.67326" transform="matrix(0.784409 0.620243 -0.784409 0.620243 764.913 980.073)" fill="#00FFF0"/>
<rect width="4.03059" height="4.03059" transform="matrix(-0.784409 -0.620243 -0.784409 0.620243 940.982 985.453)" fill="#00FFF0"/>
<rect width="4.2889" height="4.2889" transform="matrix(0.784409 0.620243 -0.784409 0.620243 867.083 1052.48)" fill="#00FFF0"/>
<rect width="4.28893" height="4.28893" transform="matrix(0.78443 0.620217 -0.78443 0.620217 609.412 896.131)" fill="#00FFF0"/>
<rect width="4.28893" height="4.28893" transform="matrix(0.78443 0.620217 -0.78443 0.620217 634.828 769.338)" fill="#00FFF0" fill-opacity="0.5"/>
<rect width="2.9975" height="2.9975" transform="matrix(0.784409 0.620243 -0.784409 0.620243 707.594 843.353)" fill="#00FFF0" fill-opacity="0.5"/>
<rect width="5.59238" height="5.59238" transform="matrix(0.784409 0.620243 -0.784409 0.620243 667.032 830.205)" fill="#00FFF0" fill-opacity="0.5"/>
<ellipse cx="1340.36" cy="959.822" rx="303.315" ry="239.835" fill="url(#paint8_radial_13_339)" fill-opacity="0.5"/>
<ellipse cx="1340.36" cy="959.744" rx="449.285" ry="355.255" fill="url(#paint9_radial_13_339)" fill-opacity="0.6"/>
<g filter="url(#filter2_d_13_339)">
<ellipse cx="1340.36" cy="1070.26" rx="239.083" ry="118.432" fill="url(#paint10_linear_13_339)" fill-opacity="0.5" shape-rendering="crispEdges"/>
<path d="M1578.93 1070.26C1578.93 1102.66 1552.4 1132.13 1509.19 1153.54C1466.01 1174.93 1406.32 1188.17 1340.36 1188.17C1274.4 1188.17 1214.71 1174.93 1171.53 1153.54C1128.32 1132.13 1101.8 1102.66 1101.8 1070.26C1101.8 1037.86 1128.32 1008.38 1171.53 986.976C1214.71 965.586 1274.4 952.341 1340.36 952.341C1406.32 952.341 1466.01 965.586 1509.19 986.976C1552.4 1008.38 1578.93 1037.86 1578.93 1070.26Z" stroke="url(#paint11_linear_13_339)" stroke-opacity="0.6" stroke-width="1.03515" shape-rendering="crispEdges"/>
</g>
<ellipse cx="1340.36" cy="959.824" rx="303.315" ry="239.835" fill="url(#paint12_radial_13_339)"/>
<g filter="url(#filter3_d_13_339)">
<ellipse cx="1340.36" cy="999.478" rx="296.541" ry="137.175" fill="url(#paint13_linear_13_339)" fill-opacity="0.5" shape-rendering="crispEdges"/>
</g>
<g filter="url(#filter4_d_13_339)">
<ellipse cx="1340.36" cy="914.315" rx="293.525" ry="134.002" fill="url(#paint14_linear_13_339)" fill-opacity="0.5" shape-rendering="crispEdges"/>
<path d="M1633.37 914.315C1633.37 950.992 1600.78 984.365 1547.7 1008.6C1494.66 1032.81 1421.36 1047.8 1340.36 1047.8C1259.36 1047.8 1186.06 1032.81 1133.02 1008.6C1079.94 984.365 1047.35 950.992 1047.35 914.315C1047.35 877.638 1079.94 844.265 1133.02 820.032C1186.06 795.819 1259.36 780.83 1340.36 780.83C1421.36 780.83 1494.66 795.819 1547.7 820.032C1600.78 844.265 1633.37 877.638 1633.37 914.315Z" stroke="url(#paint15_linear_13_339)" stroke-opacity="0.6" stroke-width="1.03515" shape-rendering="crispEdges"/>
</g>
<g filter="url(#filter5_d_13_339)">
<ellipse cx="1340.36" cy="804.684" rx="141.768" ry="75.9777" fill="url(#paint16_linear_13_339)" fill-opacity="0.5" shape-rendering="crispEdges"/>
</g>
<ellipse cx="1340.36" cy="959.822" rx="224.671" ry="177.651" fill="url(#paint17_radial_13_339)"/>
<g filter="url(#filter6_d_13_339)">
<path d="M1567.6 845.117C1567.6 876.967 1542.33 905.935 1501.18 926.971C1460.04 947.992 1403.19 961.01 1340.36 961.01C1277.52 961.01 1220.67 947.992 1179.54 926.971C1138.38 905.935 1113.11 876.967 1113.11 845.117C1113.11 813.266 1138.38 784.299 1179.54 763.263C1220.67 742.241 1277.52 729.223 1340.36 729.223C1403.19 729.223 1460.04 742.241 1501.18 763.263C1542.33 784.299 1567.6 813.266 1567.6 845.117Z" stroke="url(#paint18_linear_13_339)" stroke-opacity="0.6" stroke-width="1.03515" shape-rendering="crispEdges"/>
</g>
<g filter="url(#filter7_d_13_339)">
<path d="M1633.37 914.315C1633.37 950.992 1600.78 984.365 1547.7 1008.6C1494.66 1032.81 1421.36 1047.8 1340.36 1047.8C1259.36 1047.8 1186.06 1032.81 1133.02 1008.6C1079.94 984.365 1047.35 950.992 1047.35 914.315C1047.35 877.638 1079.94 844.265 1133.02 820.032C1186.06 795.819 1259.36 780.83 1340.36 780.83C1421.36 780.83 1494.66 795.819 1547.7 820.032C1600.78 844.265 1633.37 877.638 1633.37 914.315Z" stroke="url(#paint19_linear_13_339)" stroke-opacity="0.6" stroke-width="1.03515" shape-rendering="crispEdges"/>
</g>
<g filter="url(#filter8_d_13_339)">
<path d="M1636.38 999.478C1636.38 1037.03 1603.45 1071.2 1549.83 1096.01C1496.25 1120.79 1422.19 1136.14 1340.36 1136.14C1258.53 1136.14 1184.47 1120.79 1130.89 1096.01C1077.27 1071.2 1044.34 1037.03 1044.34 999.478C1044.34 961.921 1077.27 927.756 1130.89 902.951C1184.47 878.165 1258.53 862.821 1340.36 862.821C1422.19 862.821 1496.25 878.165 1549.83 902.951C1603.45 927.756 1636.38 961.921 1636.38 999.478Z" stroke="url(#paint20_linear_13_339)" stroke-opacity="0.6" stroke-width="1.03515" shape-rendering="crispEdges"/>
</g>
<g filter="url(#filter9_d_13_339)">
<path d="M1481.61 804.684C1481.61 825.381 1465.95 844.239 1440.36 857.952C1414.8 871.653 1379.44 880.144 1340.36 880.144C1301.28 880.144 1265.93 871.653 1240.36 857.952C1214.77 844.239 1199.11 825.381 1199.11 804.684C1199.11 783.986 1214.77 765.129 1240.36 751.415C1265.93 737.714 1301.28 729.223 1340.36 729.223C1379.44 729.223 1414.8 737.714 1440.36 751.415C1465.95 765.129 1481.61 783.986 1481.61 804.684Z" stroke="url(#paint21_linear_13_339)" stroke-opacity="0.6" stroke-width="1.03515" shape-rendering="crispEdges"/>
</g>
<ellipse cx="864.91" cy="804.768" rx="172.136" ry="136.11" fill="url(#paint22_radial_13_339)" fill-opacity="0.6"/>
<g filter="url(#filter10_d_13_339)">
<ellipse cx="843.745" cy="842.552" rx="108.164" ry="53.58" fill="url(#paint23_linear_13_339)" fill-opacity="0.5" shape-rendering="crispEdges"/>
<path d="M951.392 842.552C951.392 857.044 939.52 870.305 919.999 879.975C900.511 889.629 873.552 895.615 843.745 895.615C813.939 895.615 786.98 889.629 767.492 879.975C747.971 870.305 736.099 857.044 736.099 842.552C736.099 828.061 747.971 814.799 767.492 805.129C786.98 795.475 813.939 789.49 843.745 789.49C873.552 789.49 900.511 795.475 919.999 805.129C939.52 814.799 951.392 828.061 951.392 842.552Z" stroke="url(#paint24_linear_13_339)" stroke-opacity="0.6" stroke-width="1.03515" shape-rendering="crispEdges"/>
</g>
<ellipse cx="843.747" cy="792.59" rx="137.223" ry="108.504" fill="url(#paint25_radial_13_339)"/>
<g filter="url(#filter11_d_13_339)">
<ellipse cx="843.746" cy="810.53" rx="134.158" ry="62.0593" fill="url(#paint26_linear_13_339)" fill-opacity="0.5" shape-rendering="crispEdges"/>
<path d="M977.387 810.53C977.387 827.344 962.632 842.73 938.393 853.943C914.198 865.135 880.736 872.072 843.746 872.072C806.757 872.072 773.295 865.135 749.099 853.943C724.86 842.73 710.106 827.344 710.106 810.53C710.106 793.716 724.86 778.33 749.099 767.117C773.295 755.925 806.757 748.988 843.746 748.988C880.736 748.988 914.198 755.925 938.393 767.117C962.632 778.33 977.387 793.716 977.387 810.53Z" stroke="url(#paint27_linear_13_339)" stroke-opacity="0.6" stroke-width="1.03515" shape-rendering="crispEdges"/>
</g>
<ellipse cx="843.749" cy="792.591" rx="101.644" ry="80.371" fill="url(#paint28_radial_13_339)"/>
<ellipse cx="843.749" cy="792.591" rx="101.644" ry="80.371" fill="url(#paint29_radial_13_339)"/>
<g filter="url(#filter12_d_13_339)">
<ellipse cx="843.75" cy="772.003" rx="132.794" ry="60.6241" fill="url(#paint30_linear_13_339)" fill-opacity="0.5" shape-rendering="crispEdges"/>
<path d="M976.026 772.003C976.026 788.417 961.43 803.445 937.434 814.4C913.485 825.333 880.363 832.109 843.75 832.109C807.137 832.109 774.015 825.333 750.066 814.4C726.07 803.445 711.474 788.417 711.474 772.003C711.474 755.589 726.07 740.56 750.066 729.606C774.015 718.672 807.137 711.896 843.75 711.896C880.363 711.896 913.485 718.672 937.434 729.606C961.43 740.56 976.026 755.589 976.026 772.003Z" stroke="url(#paint31_linear_13_339)" stroke-opacity="0.6" stroke-width="1.03515" shape-rendering="crispEdges"/>
</g>
<g filter="url(#filter13_d_13_339)">
<ellipse cx="843.745" cy="740.698" rx="103.044" ry="52.6655" fill="url(#paint32_linear_13_339)" fill-opacity="0.5" shape-rendering="crispEdges"/>
<path d="M946.271 740.698C946.271 754.945 934.961 767.977 916.373 777.477C897.812 786.963 872.135 792.845 843.745 792.845C815.355 792.845 789.678 786.963 771.117 777.477C752.529 767.977 741.218 754.945 741.218 740.698C741.218 726.45 752.529 713.419 771.117 703.918C789.678 694.432 815.355 688.55 843.745 688.55C872.135 688.55 897.812 694.432 916.373 703.918C934.961 713.419 946.271 726.45 946.271 740.698Z" stroke="url(#paint33_linear_13_339)" stroke-opacity="0.6" stroke-width="1.03515" shape-rendering="crispEdges"/>
</g>
<g filter="url(#filter14_d_13_339)">
<ellipse cx="843.749" cy="722.405" rx="64.1372" ry="34.3731" fill="url(#paint34_linear_13_339)" fill-opacity="0.5" shape-rendering="crispEdges"/>
<path d="M907.368 722.405C907.368 731.614 900.395 740.07 888.856 746.255C877.338 752.427 861.392 756.261 843.749 756.261C826.106 756.261 810.159 752.427 798.641 746.255C787.102 740.07 780.129 731.614 780.129 722.405C780.129 713.196 787.102 704.74 798.641 698.556C810.159 692.383 826.106 688.55 843.749 688.55C861.392 688.55 877.338 692.383 888.856 698.556C900.395 704.74 907.368 713.196 907.368 722.405Z" stroke="url(#paint35_linear_13_339)" stroke-opacity="0.6" stroke-width="1.03515" shape-rendering="crispEdges"/>
</g>
<ellipse cx="843.747" cy="792.59" rx="137.223" ry="108.504" fill="url(#paint36_radial_13_339)" fill-opacity="0.9"/>
<rect width="5.08166" height="5.08166" transform="matrix(0.784409 0.620243 -0.784409 0.620243 492.971 406.541)" fill="#8F00FF" fill-opacity="0.5"/>
<rect width="10.263" height="10.263" transform="matrix(0.784409 0.620243 -0.784409 0.620243 552.823 495.31)" fill="#8F00FF" fill-opacity="0.5"/>
<rect width="4.77564" height="4.77564" transform="matrix(-0.784428 -0.62022 -0.784428 0.62022 761.167 501.676)" fill="#8F00FF" fill-opacity="0.5"/>
<rect width="5.08166" height="5.08166" transform="matrix(0.784409 0.620243 -0.784409 0.620243 673.723 580.987)" fill="#8F00FF" fill-opacity="0.5"/>
<rect width="5.08166" height="5.08166" transform="matrix(0.784409 0.620243 -0.784409 0.620243 368.82 395.979)" fill="#8F00FF" fill-opacity="0.5"/>
<rect width="5.08166" height="5.08166" transform="matrix(0.784409 0.620243 -0.784409 0.620243 398.895 245.945)" fill="#6D2885" fill-opacity="0.5"/>
<rect width="3.5469" height="3.5469" transform="matrix(0.784384 0.620275 -0.784384 0.620275 484.998 333.529)" fill="#6D2885" fill-opacity="0.5"/>
<rect width="6.61744" height="6.61744" transform="matrix(0.784409 0.620243 -0.784409 0.620243 437.005 317.971)" fill="#6D2885" fill-opacity="0.5"/>
<rect width="7.06548" height="7.06548" transform="matrix(0.784409 0.620243 -0.784409 0.620243 179.92 915.891)" fill="#8F00FF" fill-opacity="0.5"/>
<rect width="14.2697" height="14.2697" transform="matrix(0.784416 0.620235 -0.784416 0.620235 263.136 1039.31)" fill="#8F00FF" fill-opacity="0.5"/>
<rect width="6.63996" height="6.63996" transform="matrix(-0.784409 -0.620243 -0.784409 0.620243 552.816 1048.16)" fill="#8F00FF" fill-opacity="0.5"/>
<rect width="7.06552" height="7.06552" transform="matrix(0.784422 0.620227 -0.784422 0.620227 431.235 1158.44)" fill="#8F00FF" fill-opacity="0.5"/>
<rect width="7.06552" height="7.06552" transform="matrix(0.784422 0.620227 -0.784422 0.620227 7.29877 901.207)" fill="#8F00FF" fill-opacity="0.5"/>
<rect width="7.06548" height="7.06548" transform="matrix(0.784409 0.620243 -0.784409 0.620243 49.116 692.601)" fill="#6D2885" fill-opacity="0.5"/>
<rect width="4.93805" height="4.93805" transform="matrix(0.784409 0.620243 -0.784409 0.620243 168.836 814.376)" fill="#6D2885" fill-opacity="0.5"/>
<rect width="9.20086" height="9.20086" transform="matrix(0.784419 0.620231 -0.784419 0.620231 102.102 792.745)" fill="#6D2885" fill-opacity="0.5"/>
<rect width="6.04732" height="6.04732" transform="matrix(0.931434 -0.476419 0.602518 0.736497 1884.73 575.264)" fill="#8F00FF" fill-opacity="0.5"/>
<rect width="12.2133" height="12.2133" transform="matrix(0.931434 -0.476419 0.602518 0.736497 2030.29 542.345)" fill="#8F00FF" fill-opacity="0.5"/>
<rect width="5.68312" height="5.68312" transform="matrix(-0.931434 0.476419 0.602518 0.736497 2091.64 352.245)" fill="#8F00FF" fill-opacity="0.5"/>
<rect width="6.04738" height="6.04738" transform="matrix(0.931452 -0.476381 0.602555 0.736468 2186.53 452.488)" fill="#8F00FF" fill-opacity="0.5"/>
<rect width="6.04732" height="6.04732" transform="matrix(0.931434 -0.476419 0.602518 0.736497 1838.22 686.859)" fill="#8F00FF" fill-opacity="0.5"/>
<rect width="6.04732" height="6.04732" transform="matrix(0.931434 -0.476419 0.602518 0.736497 1624.93 621.754)" fill="#6D2885" fill-opacity="0.5"/>
<rect width="4.22093" height="4.22093" transform="matrix(0.93142 -0.476446 0.602491 0.736518 1775.3 564.385)" fill="#6D2885" fill-opacity="0.5"/>
<rect width="7.87498" height="7.87498" transform="matrix(0.931441 -0.476404 0.602532 0.736486 1740.43 604.661)" fill="#6D2885" fill-opacity="0.5"/>
<rect width="12.2133" height="12.2133" transform="matrix(1.0935 0.147642 -0.18672 0.864642 1513.78 408.384)" fill="#8F00FF" fill-opacity="0.5"/>
<rect width="5.68312" height="5.68312" transform="matrix(-1.0935 -0.147642 -0.18672 0.864642 1721.65 301.251)" fill="#8F00FF" fill-opacity="0.5"/>
<rect width="6.04732" height="6.04732" transform="matrix(1.0935 0.147642 -0.18672 0.864642 1705.73 425.833)" fill="#8F00FF" fill-opacity="0.5"/>
<rect width="6.04732" height="6.04732" transform="matrix(1.0935 0.147642 -0.18672 0.864642 1248.7 412.001)" fill="#8F00FF" fill-opacity="0.5"/>
<rect width="6.04732" height="6.04732" transform="matrix(1.0935 0.147642 -0.18672 0.864642 1147.39 249.946)" fill="#6D2885" fill-opacity="0.5"/>
<rect width="4.22095" height="4.22095" transform="matrix(1.0935 0.14763 -0.186736 0.86464 1307.19 288.167)" fill="#6D2885" fill-opacity="0.5"/>
<rect width="7.87495" height="7.87495" transform="matrix(1.0935 0.147642 -0.18672 0.864642 1247.05 299.162)" fill="#6D2885" fill-opacity="0.5"/>
<defs>
<filter id="filter0_d_13_339" x="818.66" y="730.711" width="901.604" height="391.777" filterUnits="userSpaceOnUse" color-interpolation-filters="sRGB">
<feFlood flood-opacity="0" result="BackgroundImageFix"/>
<feColorMatrix in="SourceAlpha" type="matrix" values="0 0 0 0 0 0 0 0 0 0 0 0 0 0 0 0 0 0 127 0" result="hardAlpha"/>
<feOffset dx="5.17577"/>
<feGaussianBlur stdDeviation="3.88183"/>
<feComposite in2="hardAlpha" operator="out"/>
<feColorMatrix type="matrix" values="0 0 0 0 0.119531 0 0 0 0 0.163828 0 0 0 0 0.5625 0 0 0 0.1 0"/>
<feBlend mode="normal" in2="BackgroundImageFix" result="effect1_dropShadow_13_339"/>
<feBlend mode="normal" in="SourceGraphic" in2="effect1_dropShadow_13_339" result="shape"/>
</filter>
<filter id="filter1_d_13_339" x="628.866" y="561.823" width="1281.2" height="576.918" filterUnits="userSpaceOnUse" color-interpolation-filters="sRGB">
<feFlood flood-opacity="0" result="BackgroundImageFix"/>
<feColorMatrix in="SourceAlpha" type="matrix" values="0 0 0 0 0 0 0 0 0 0 0 0 0 0 0 0 0 0 127 0" result="hardAlpha"/>
<feOffset dx="5.17577" dy="-0.517577"/>
<feGaussianBlur stdDeviation="3.88183"/>
<feComposite in2="hardAlpha" operator="out"/>
<feColorMatrix type="matrix" values="0 0 0 0 0.119531 0 0 0 0 0.163828 0 0 0 0 0.5625 0 0 0 0.1 0"/>
<feBlend mode="normal" in2="BackgroundImageFix" result="effect1_dropShadow_13_339"/>
<feBlend mode="normal" in="SourceGraphic" in2="effect1_dropShadow_13_339" result="shape"/>
</filter>
<filter id="filter2_d_13_339" x="1094.55" y="945.095" width="493.693" height="252.392" filterUnits="userSpaceOnUse" color-interpolation-filters="sRGB">
<feFlood flood-opacity="0" result="BackgroundImageFix"/>
<feColorMatrix in="SourceAlpha" type="matrix" values="0 0 0 0 0 0 0 0 0 0 0 0 0 0 0 0 0 0 127 0" result="hardAlpha"/>
<feOffset dx="1.03515" dy="1.03515"/>
<feGaussianBlur stdDeviation="3.88183"/>
<feComposite in2="hardAlpha" operator="out"/>
<feColorMatrix type="matrix" values="0 0 0 0 0.440043 0 0 0 0 0.20092 0 0 0 0 0.679167 0 0 0 0.2 0"/>
<feBlend mode="normal" in2="BackgroundImageFix" result="effect1_dropShadow_13_339"/>
<feBlend mode="normal" in="SourceGraphic" in2="effect1_dropShadow_13_339" result="shape"/>
</filter>
<filter id="filter3_d_13_339" x="1037.09" y="855.575" width="608.609" height="289.877" filterUnits="userSpaceOnUse" color-interpolation-filters="sRGB">
<feFlood flood-opacity="0" result="BackgroundImageFix"/>
<feColorMatrix in="SourceAlpha" type="matrix" values="0 0 0 0 0 0 0 0 0 0 0 0 0 0 0 0 0 0 127 0" result="hardAlpha"/>
<feOffset dx="1.03515" dy="1.03515"/>
<feGaussianBlur stdDeviation="3.88183"/>
<feComposite in2="hardAlpha" operator="out"/>
<feColorMatrix type="matrix" values="0 0 0 0 0.440043 0 0 0 0 0.20092 0 0 0 0 0.679167 0 0 0 0.2 0"/>
<feBlend mode="normal" in2="BackgroundImageFix" result="effect1_dropShadow_13_339"/>
<feBlend mode="normal" in="SourceGraphic" in2="effect1_dropShadow_13_339" result="shape"/>
</filter>
<filter id="filter4_d_13_339" x="1040.11" y="773.584" width="602.577" height="283.532" filterUnits="userSpaceOnUse" color-interpolation-filters="sRGB">
<feFlood flood-opacity="0" result="BackgroundImageFix"/>
<feColorMatrix in="SourceAlpha" type="matrix" values="0 0 0 0 0 0 0 0 0 0 0 0 0 0 0 0 0 0 127 0" result="hardAlpha"/>
<feOffset dx="1.03515" dy="1.03515"/>
<feGaussianBlur stdDeviation="3.88183"/>
<feComposite in2="hardAlpha" operator="out"/>
<feColorMatrix type="matrix" values="0 0 0 0 0.440043 0 0 0 0 0.20092 0 0 0 0 0.679167 0 0 0 0.2 0"/>
<feBlend mode="normal" in2="BackgroundImageFix" result="effect1_dropShadow_13_339"/>
<feBlend mode="normal" in="SourceGraphic" in2="effect1_dropShadow_13_339" result="shape"/>
</filter>
<filter id="filter5_d_13_339" x="1191.87" y="721.977" width="299.063" height="167.483" filterUnits="userSpaceOnUse" color-interpolation-filters="sRGB">
<feFlood flood-opacity="0" result="BackgroundImageFix"/>
<feColorMatrix in="SourceAlpha" type="matrix" values="0 0 0 0 0 0 0 0 0 0 0 0 0 0 0 0 0 0 127 0" result="hardAlpha"/>
<feOffset dx="1.03515" dy="1.03515"/>
<feGaussianBlur stdDeviation="3.88183"/>
<feComposite in2="hardAlpha" operator="out"/>
<feColorMatrix type="matrix" values="0 0 0 0 0.440043 0 0 0 0 0.20092 0 0 0 0 0.679167 0 0 0 0.2 0"/>
<feBlend mode="normal" in2="BackgroundImageFix" result="effect1_dropShadow_13_339"/>
<feBlend mode="normal" in="SourceGraphic" in2="effect1_dropShadow_13_339" result="shape"/>
</filter>
<filter id="filter6_d_13_339" x="1105.86" y="721.977" width="471.061" height="248.349" filterUnits="userSpaceOnUse" color-interpolation-filters="sRGB">
<feFlood flood-opacity="0" result="BackgroundImageFix"/>
<feColorMatrix in="SourceAlpha" type="matrix" values="0 0 0 0 0 0 0 0 0 0 0 0 0 0 0 0 0 0 127 0" result="hardAlpha"/>
<feOffset dx="1.03515" dy="1.03515"/>
<feGaussianBlur stdDeviation="3.88183"/>
<feComposite in2="hardAlpha" operator="out"/>
<feColorMatrix type="matrix" values="0 0 0 0 0.440043 0 0 0 0 0.20092 0 0 0 0 0.679167 0 0 0 0.2 0"/>
<feBlend mode="normal" in2="BackgroundImageFix" result="effect1_dropShadow_13_339"/>
<feBlend mode="normal" in="SourceGraphic" in2="effect1_dropShadow_13_339" result="shape"/>
</filter>
<filter id="filter7_d_13_339" x="1040.11" y="773.584" width="602.577" height="283.532" filterUnits="userSpaceOnUse" color-interpolation-filters="sRGB">
<feFlood flood-opacity="0" result="BackgroundImageFix"/>
<feColorMatrix in="SourceAlpha" type="matrix" values="0 0 0 0 0 0 0 0 0 0 0 0 0 0 0 0 0 0 127 0" result="hardAlpha"/>
<feOffset dx="1.03515" dy="1.03515"/>
<feGaussianBlur stdDeviation="3.88183"/>
<feComposite in2="hardAlpha" operator="out"/>
<feColorMatrix type="matrix" values="0 0 0 0 0.440043 0 0 0 0 0.20092 0 0 0 0 0.679167 0 0 0 0.2 0"/>
<feBlend mode="normal" in2="BackgroundImageFix" result="effect1_dropShadow_13_339"/>
<feBlend mode="normal" in="SourceGraphic" in2="effect1_dropShadow_13_339" result="shape"/>
</filter>
<filter id="filter8_d_13_339" x="1037.09" y="855.575" width="608.609" height="289.877" filterUnits="userSpaceOnUse" color-interpolation-filters="sRGB">
<feFlood flood-opacity="0" result="BackgroundImageFix"/>
<feColorMatrix in="SourceAlpha" type="matrix" values="0 0 0 0 0 0 0 0 0 0 0 0 0 0 0 0 0 0 127 0" result="hardAlpha"/>
<feOffset dx="1.03515" dy="1.03515"/>
<feGaussianBlur stdDeviation="3.88183"/>
<feComposite in2="hardAlpha" operator="out"/>
<feColorMatrix type="matrix" values="0 0 0 0 0.440043 0 0 0 0 0.20092 0 0 0 0 0.679167 0 0 0 0.2 0"/>
<feBlend mode="normal" in2="BackgroundImageFix" result="effect1_dropShadow_13_339"/>
<feBlend mode="normal" in="SourceGraphic" in2="effect1_dropShadow_13_339" result="shape"/>
</filter>
<filter id="filter9_d_13_339" x="1191.87" y="721.977" width="299.063" height="167.483" filterUnits="userSpaceOnUse" color-interpolation-filters="sRGB">
<feFlood flood-opacity="0" result="BackgroundImageFix"/>
<feColorMatrix in="SourceAlpha" type="matrix" values="0 0 0 0 0 0 0 0 0 0 0 0 0 0 0 0 0 0 127 0" result="hardAlpha"/>
<feOffset dx="1.03515" dy="1.03515"/>
<feGaussianBlur stdDeviation="3.88183"/>
<feComposite in2="hardAlpha" operator="out"/>
<feColorMatrix type="matrix" values="0 0 0 0 0.440043 0 0 0 0 0.20092 0 0 0 0 0.679167 0 0 0 0.2 0"/>
<feBlend mode="normal" in2="BackgroundImageFix" result="effect1_dropShadow_13_339"/>
<feBlend mode="normal" in="SourceGraphic" in2="effect1_dropShadow_13_339" result="shape"/>
</filter>
<filter id="filter10_d_13_339" x="728.853" y="782.244" width="231.855" height="122.687" filterUnits="userSpaceOnUse" color-interpolation-filters="sRGB">
<feFlood flood-opacity="0" result="BackgroundImageFix"/>
<feColorMatrix in="SourceAlpha" type="matrix" values="0 0 0 0 0 0 0 0 0 0 0 0 0 0 0 0 0 0 127 0" result="hardAlpha"/>
<feOffset dx="1.03515" dy="1.03515"/>
<feGaussianBlur stdDeviation="3.88183"/>
<feComposite in2="hardAlpha" operator="out"/>
<feColorMatrix type="matrix" values="0 0 0 0 0.440043 0 0 0 0 0.20092 0 0 0 0 0.679167 0 0 0 0.2 0"/>
<feBlend mode="normal" in2="BackgroundImageFix" result="effect1_dropShadow_13_339"/>
<feBlend mode="normal" in="SourceGraphic" in2="effect1_dropShadow_13_339" result="shape"/>
</filter>
<filter id="filter11_d_13_339" x="702.86" y="741.742" width="283.844" height="139.646" filterUnits="userSpaceOnUse" color-interpolation-filters="sRGB">
<feFlood flood-opacity="0" result="BackgroundImageFix"/>
<feColorMatrix in="SourceAlpha" type="matrix" values="0 0 0 0 0 0 0 0 0 0 0 0 0 0 0 0 0 0 127 0" result="hardAlpha"/>
<feOffset dx="1.03515" dy="1.03515"/>
<feGaussianBlur stdDeviation="3.88183"/>
<feComposite in2="hardAlpha" operator="out"/>
<feColorMatrix type="matrix" values="0 0 0 0 0.440043 0 0 0 0 0.20092 0 0 0 0 0.679167 0 0 0 0.2 0"/>
<feBlend mode="normal" in2="BackgroundImageFix" result="effect1_dropShadow_13_339"/>
<feBlend mode="normal" in="SourceGraphic" in2="effect1_dropShadow_13_339" result="shape"/>
</filter>
<filter id="filter12_d_13_339" x="704.228" y="704.65" width="281.115" height="136.776" filterUnits="userSpaceOnUse" color-interpolation-filters="sRGB">
<feFlood flood-opacity="0" result="BackgroundImageFix"/>
<feColorMatrix in="SourceAlpha" type="matrix" values="0 0 0 0 0 0 0 0 0 0 0 0 0 0 0 0 0 0 127 0" result="hardAlpha"/>
<feOffset dx="1.03515" dy="1.03515"/>
<feGaussianBlur stdDeviation="3.88183"/>
<feComposite in2="hardAlpha" operator="out"/>
<feColorMatrix type="matrix" values="0 0 0 0 0.440043 0 0 0 0 0.20092 0 0 0 0 0.679167 0 0 0 0.2 0"/>
<feBlend mode="normal" in2="BackgroundImageFix" result="effect1_dropShadow_13_339"/>
<feBlend mode="normal" in="SourceGraphic" in2="effect1_dropShadow_13_339" result="shape"/>
</filter>
<filter id="filter13_d_13_339" x="733.972" y="681.304" width="221.615" height="120.858" filterUnits="userSpaceOnUse" color-interpolation-filters="sRGB">
<feFlood flood-opacity="0" result="BackgroundImageFix"/>
<feColorMatrix in="SourceAlpha" type="matrix" values="0 0 0 0 0 0 0 0 0 0 0 0 0 0 0 0 0 0 127 0" result="hardAlpha"/>
<feOffset dx="1.03515" dy="1.03515"/>
<feGaussianBlur stdDeviation="3.88183"/>
<feComposite in2="hardAlpha" operator="out"/>
<feColorMatrix type="matrix" values="0 0 0 0 0.440043 0 0 0 0 0.20092 0 0 0 0 0.679167 0 0 0 0.2 0"/>
<feBlend mode="normal" in2="BackgroundImageFix" result="effect1_dropShadow_13_339"/>
<feBlend mode="normal" in="SourceGraphic" in2="effect1_dropShadow_13_339" result="shape"/>
</filter>
<filter id="filter14_d_13_339" x="772.883" y="681.304" width="143.802" height="84.2735" filterUnits="userSpaceOnUse" color-interpolation-filters="sRGB">
<feFlood flood-opacity="0" result="BackgroundImageFix"/>
<feColorMatrix in="SourceAlpha" type="matrix" values="0 0 0 0 0 0 0 0 0 0 0 0 0 0 0 0 0 0 127 0" result="hardAlpha"/>
<feOffset dx="1.03515" dy="1.03515"/>
<feGaussianBlur stdDeviation="3.88183"/>
<feComposite in2="hardAlpha" operator="out"/>
<feColorMatrix type="matrix" values="0 0 0 0 0.440043 0 0 0 0 0.20092 0 0 0 0 0.679167 0 0 0 0.2 0"/>
<feBlend mode="normal" in2="BackgroundImageFix" result="effect1_dropShadow_13_339"/>
<feBlend mode="normal" in="SourceGraphic" in2="effect1_dropShadow_13_339" result="shape"/>
</filter>
<linearGradient id="paint0_linear_13_339" x1="725.738" y1="1541.76" x2="917.162" y2="372.215" gradientUnits="userSpaceOnUse">
<stop stop-color="white"/>
<stop offset="0.508554" stop-color="#30FFFF"/>
<stop offset="1" stop-color="white" stop-opacity="0"/>
</linearGradient>
<radialGradient id="paint1_radial_13_339" cx="0" cy="0" r="1" gradientUnits="userSpaceOnUse" gradientTransform="translate(578.576 1127.75) rotate(-39.0026) scale(657.09 1145.81)">
<stop stop-color="white"/>
<stop offset="0.462474" stop-color="#3A45AA"/>
<stop offset="1" stop-color="#3A45AA" stop-opacity="0"/>
</radialGradient>
<linearGradient id="paint2_linear_13_339" x1="890.576" y1="1140.12" x2="1133.84" y2="630.005" gradientUnits="userSpaceOnUse">
<stop stop-color="white"/>
<stop offset="0.442828" stop-color="#30FFFF"/>
<stop offset="1" stop-color="white" stop-opacity="0"/>
</linearGradient>
<radialGradient id="paint3_radial_13_339" cx="0" cy="0" r="1" gradientUnits="userSpaceOnUse" gradientTransform="translate(1446.16 817.524) rotate(147.661) scale(469.522 775.356)">
<stop offset="0.39201" stop-color="#1B29A4" stop-opacity="0"/>
<stop offset="0.841913" stop-color="#2938BB" stop-opacity="0.5"/>
<stop offset="1" stop-color="#172075" stop-opacity="0.5"/>
</radialGradient>
<radialGradient id="paint4_radial_13_339" cx="0" cy="0" r="1" gradientUnits="userSpaceOnUse" gradientTransform="translate(1494.9 753.961) rotate(147.897) scale(653.365 1067.24)">
<stop offset="0.39201" stop-color="#6675FF" stop-opacity="0"/>
<stop offset="0.841913" stop-color="#6675FF" stop-opacity="0.5"/>
<stop offset="1" stop-color="#192059" stop-opacity="0"/>
</radialGradient>
<radialGradient id="paint5_radial_13_339" cx="0" cy="0" r="1" gradientUnits="userSpaceOnUse" gradientTransform="translate(1593.69 593.211) rotate(146.762) scale(945.2 1572.29)">
<stop offset="0.39201" stop-color="#6675FF" stop-opacity="0"/>
<stop offset="0.841913" stop-color="#6675FF" stop-opacity="0.5"/>
<stop offset="1" stop-color="#DBDEFF" stop-opacity="0"/>
</radialGradient>
<radialGradient id="paint6_radial_13_339" cx="0" cy="0" r="1" gradientUnits="userSpaceOnUse" gradientTransform="translate(1413.39 863.507) rotate(147.661) scale(384.913 635.632)">
<stop offset="0.39201" stop-color="#17217A" stop-opacity="0"/>
<stop offset="0.841913" stop-color="#1A2374" stop-opacity="0.5"/>
<stop offset="1" stop-color="#151E6C" stop-opacity="0.5"/>
</radialGradient>
<linearGradient id="paint7_linear_13_339" x1="1020.54" y1="1114.59" x2="1152.24" y2="670.329" gradientUnits="userSpaceOnUse">
<stop stop-color="white"/>
<stop offset="0.508554" stop-color="#30FFFF"/>
<stop offset="1" stop-color="white" stop-opacity="0"/>
</linearGradient>
<radialGradient id="paint8_radial_13_339" cx="0" cy="0" r="1" gradientUnits="userSpaceOnUse" gradientTransform="translate(1218.54 1229.95) rotate(-58.4185) scale(568.39 644.943)">
<stop offset="0.107416" stop-color="white" stop-opacity="0.5"/>
<stop offset="0.328407" stop-color="#8FB5FF" stop-opacity="0.5"/>
<stop offset="0.629496" stop-color="#220C7A" stop-opacity="0"/>
</radialGradient>
<radialGradient id="paint9_radial_13_339" cx="0" cy="0" r="1" gradientUnits="userSpaceOnUse" gradientTransform="translate(1340.36 959.744) rotate(90) scale(355.255 449.285)">
<stop stop-color="#3E5DFF"/>
<stop offset="1" stop-color="#3E5DFF" stop-opacity="0"/>
</radialGradient>
<linearGradient id="paint10_linear_13_339" x1="1579.44" y1="1044.62" x2="1102.91" y2="1088.12" gradientUnits="userSpaceOnUse">
<stop stop-color="#4E53BE" stop-opacity="0.5"/>
<stop offset="0.885417" stop-color="#33CEFF" stop-opacity="0.7"/>
<stop offset="1" stop-color="white" stop-opacity="0.5"/>
</linearGradient>
<linearGradient id="paint11_linear_13_339" x1="1382.15" y1="1240.11" x2="1400.84" y2="977.265" gradientUnits="userSpaceOnUse">
<stop stop-color="white"/>
<stop offset="1" stop-color="white" stop-opacity="0"/>
</linearGradient>
<radialGradient id="paint12_radial_13_339" cx="0" cy="0" r="1" gradientUnits="userSpaceOnUse" gradientTransform="translate(1037.04 1047.07) rotate(-15.7778) scale(630.379 520.539)">
<stop offset="0.249306" stop-color="white"/>
<stop offset="0.48315" stop-color="#8FF2FF" stop-opacity="0.5"/>
<stop offset="0.627037" stop-color="#220C7A" stop-opacity="0.1"/>
</radialGradient>
<linearGradient id="paint13_linear_13_339" x1="1606.41" y1="991.547" x2="1044.41" y2="1014.11" gradientUnits="userSpaceOnUse">
<stop stop-color="#4E53BE" stop-opacity="0.1"/>
<stop offset="1" stop-color="#33CEFF"/>
</linearGradient>
<linearGradient id="paint14_linear_13_339" x1="1562.92" y1="902.395" x2="1047.82" y2="931.698" gradientUnits="userSpaceOnUse">
<stop stop-color="#4E53BE" stop-opacity="0.1"/>
<stop offset="0.997187" stop-color="#33CEFF"/>
</linearGradient>
<linearGradient id="paint15_linear_13_339" x1="1391.66" y1="1106.5" x2="1411.17" y2="808.873" gradientUnits="userSpaceOnUse">
<stop stop-color="white"/>
<stop offset="1" stop-color="white" stop-opacity="0"/>
</linearGradient>
<linearGradient id="paint16_linear_13_339" x1="1482.13" y1="788.239" x2="1199.22" y2="812.107" gradientUnits="userSpaceOnUse">
<stop stop-color="#4E53BE" stop-opacity="0.1"/>
<stop offset="1" stop-color="#33CEFF" stop-opacity="0.9"/>
</linearGradient>
<radialGradient id="paint17_radial_13_339" cx="0" cy="0" r="1" gradientUnits="userSpaceOnUse" gradientTransform="translate(1384.14 1294.66) rotate(-81.4212) scale(518.286 650)">
<stop offset="0.338542" stop-color="#68FFF6" stop-opacity="0.1"/>
<stop offset="0.802083" stop-color="#FFBFE9"/>
<stop offset="1" stop-color="white"/>
</radialGradient>
<linearGradient id="paint18_linear_13_339" x1="1366.18" y1="961.527" x2="1375.71" y2="750.17" gradientUnits="userSpaceOnUse">
<stop stop-color="white"/>
<stop offset="1" stop-color="white" stop-opacity="0"/>
</linearGradient>
<linearGradient id="paint19_linear_13_339" x1="1354.95" y1="1051.83" x2="1376.77" y2="800.555" gradientUnits="userSpaceOnUse">
<stop stop-color="white"/>
<stop offset="1" stop-color="white" stop-opacity="0"/>
</linearGradient>
<linearGradient id="paint20_linear_13_339" x1="1361.97" y1="1141.24" x2="1365.63" y2="877.962" gradientUnits="userSpaceOnUse">
<stop stop-color="white"/>
<stop offset="1" stop-color="white" stop-opacity="0"/>
</linearGradient>
<linearGradient id="paint21_linear_13_339" x1="1365.14" y1="913.651" x2="1378.1" y2="745.172" gradientUnits="userSpaceOnUse">
<stop stop-color="white"/>
<stop offset="1" stop-color="white" stop-opacity="0"/>
</linearGradient>
<radialGradient id="paint22_radial_13_339" cx="0" cy="0" r="1" gradientUnits="userSpaceOnUse" gradientTransform="translate(864.91 804.768) rotate(90) scale(136.11 172.136)">
<stop stop-color="#FF65C1"/>
<stop offset="1" stop-color="#FF65C1" stop-opacity="0"/>
</radialGradient>
<linearGradient id="paint23_linear_13_339" x1="951.909" y1="830.955" x2="736.319" y2="850.633" gradientUnits="userSpaceOnUse">
<stop stop-color="#4E53BE" stop-opacity="0.5"/>
<stop offset="0.885417" stop-color="#FB33FF" stop-opacity="0.5"/>
<stop offset="1" stop-color="white" stop-opacity="0.5"/>
</linearGradient>
<linearGradient id="paint24_linear_13_339" x1="862.651" y1="919.397" x2="871.106" y2="800.482" gradientUnits="userSpaceOnUse">
<stop stop-color="white"/>
<stop offset="1" stop-color="white" stop-opacity="0"/>
</linearGradient>
<radialGradient id="paint25_radial_13_339" cx="0" cy="0" r="1" gradientUnits="userSpaceOnUse" gradientTransform="translate(706.524 832.061) rotate(-15.7778) scale(285.19 235.498)">
<stop offset="0.249306" stop-color="white"/>
<stop offset="0.48315" stop-color="#FF8FED" stop-opacity="0.5"/>
<stop offset="0.627037" stop-color="#220C7A" stop-opacity="0.5"/>
</radialGradient>
<linearGradient id="paint26_linear_13_339" x1="977.904" y1="797.098" x2="710.827" y2="823.203" gradientUnits="userSpaceOnUse">
<stop stop-color="#4E53BE" stop-opacity="0.5"/>
<stop offset="0.885417" stop-color="#FB33FF" stop-opacity="0.5"/>
<stop offset="1" stop-color="white" stop-opacity="0.5"/>
</linearGradient>
<linearGradient id="paint27_linear_13_339" x1="867.195" y1="899.536" x2="876.347" y2="761.714" gradientUnits="userSpaceOnUse">
<stop stop-color="white"/>
<stop offset="1" stop-color="white" stop-opacity="0"/>
</linearGradient>
<radialGradient id="paint28_radial_13_339" cx="0" cy="0" r="1" gradientUnits="userSpaceOnUse" gradientTransform="translate(876.414 872.962) rotate(-112.038) scale(165.879 198.715)">
<stop offset="0.223958" stop-color="white"/>
<stop offset="0.466382" stop-color="#FFCEF1"/>
<stop offset="0.682292" stop-color="#B6B9FF"/>
<stop offset="0.881791" stop-color="white"/>
</radialGradient>
<radialGradient id="paint29_radial_13_339" cx="0" cy="0" r="1" gradientUnits="userSpaceOnUse" gradientTransform="translate(893.97 872.962) rotate(-103.039) scale(222.595 276.141)">
<stop stop-color="white"/>
<stop offset="1" stop-color="white" stop-opacity="0"/>
</radialGradient>
<linearGradient id="paint30_linear_13_339" x1="976.543" y1="758.881" x2="712.249" y2="785.057" gradientUnits="userSpaceOnUse">
<stop stop-color="#4E53BE" stop-opacity="0.5"/>
<stop offset="0.885417" stop-color="#FB33FF" stop-opacity="0.5"/>
<stop offset="1" stop-color="white" stop-opacity="0.5"/>
</linearGradient>
<linearGradient id="paint31_linear_13_339" x1="866.96" y1="858.95" x2="875.784" y2="724.3" gradientUnits="userSpaceOnUse">
<stop stop-color="white"/>
<stop offset="1" stop-color="white" stop-opacity="0"/>
</linearGradient>
<linearGradient id="paint32_linear_13_339" x1="946.789" y1="729.298" x2="741.301" y2="747.477" gradientUnits="userSpaceOnUse">
<stop stop-color="#4E53BE" stop-opacity="0.5"/>
<stop offset="0.885417" stop-color="#FB33FF" stop-opacity="0.5"/>
<stop offset="1" stop-color="white" stop-opacity="0.5"/>
</linearGradient>
<linearGradient id="paint33_linear_13_339" x1="861.755" y1="816.231" x2="870.328" y2="699.383" gradientUnits="userSpaceOnUse">
<stop stop-color="white"/>
<stop offset="1" stop-color="white" stop-opacity="0"/>
</linearGradient>
<linearGradient id="paint34_linear_13_339" x1="907.886" y1="714.965" x2="779.895" y2="725.764" gradientUnits="userSpaceOnUse">
<stop stop-color="#4E53BE" stop-opacity="0.5"/>
<stop offset="0.885417" stop-color="#FB33FF" stop-opacity="0.5"/>
<stop offset="1" stop-color="white" stop-opacity="0.5"/>
</linearGradient>
<linearGradient id="paint35_linear_13_339" x1="854.959" y1="771.703" x2="860.823" y2="695.481" gradientUnits="userSpaceOnUse">
<stop stop-color="white"/>
<stop offset="1" stop-color="white" stop-opacity="0"/>
</linearGradient>
<radialGradient id="paint36_radial_13_339" cx="0" cy="0" r="1" gradientUnits="userSpaceOnUse" gradientTransform="translate(788.635 914.8) rotate(-59.6267) scale(359.82 411.455)">
<stop offset="0.249306" stop-color="white"/>
<stop offset="0.48315" stop-color="#FF8FED" stop-opacity="0.5"/>
<stop offset="0.627037" stop-color="#220C7A" stop-opacity="0"/>
</radialGradient>
</defs>
</svg>
