<svg width="67" height="67" viewBox="0 0 67 67" fill="none" xmlns="http://www.w3.org/2000/svg">
<mask id="mask0_4_110" style="mask-type:luminance" maskUnits="userSpaceOnUse" x="0" y="0" width="67" height="67">
<path d="M0 0H66.0612V67H0V0Z" fill="white"/>
</mask>
<g mask="url(#mask0_4_110)">
<path d="M64.6832 18.1643C64.3193 16.8267 63.5929 15.6037 62.5769 14.618C61.5607 13.6323 60.2906 12.9185 58.8937 12.5482C53.7247 11.1687 33.0137 11.1687 33.0137 11.1687C24.3778 11.0698 15.7442 11.5087 7.16821 12.4825C5.77087 12.8799 4.50286 13.6101 3.48386 14.6043C2.46489 15.5984 1.72854 16.8236 1.34435 18.1643C0.417829 23.2285 -0.0319483 28.3617 0.000383748 33.502C-0.0341655 38.6425 0.41563 43.7759 1.34435 48.8399C1.72063 50.1769 2.45539 51.3977 3.47646 52.3826C4.49752 53.3672 5.76975 54.0816 7.16821 54.4559C12.4063 55.8353 33.0137 55.8353 33.0137 55.8353C41.6611 55.9344 50.3063 55.4955 58.8937 54.5215C60.2906 54.1514 61.5607 53.4375 62.5769 52.4518C63.5929 51.4661 64.3193 50.243 64.6832 48.9055C65.6333 43.8437 66.0947 38.7098 66.0616 33.5678C66.1329 28.4027 65.671 23.2433 64.6832 18.1643ZM26.4318 43.0595V23.9447L43.6622 33.502L26.4318 43.0595Z" fill="#CFB4E3"/>
</g>
</svg>
